<svg fill="none" height="19" viewBox="0 0 19 19" width="19" xmlns="http://www.w3.org/2000/svg"><path d="m18.4535 11.4216v6.7111h-3.8899v-6.2583c0-1.5713-.5615-2.64454-1.9699-2.64454-1.0732 0-1.7117.72454-1.997 1.42194-.1041.249-.1268.5977-.1268.9464v6.5345h-3.88988s.05434-10.60099 0-11.70139h3.88988v1.6574s-.0181.02717-.0272.03622h.0272v-.03622c.5162-.797 1.44-1.93363 3.505-1.93363 2.5585 0 4.4786 1.67098 4.4786 5.26652zm-17.914354 6.7111h3.889894v-11.70139h-3.889894zm0 0 4.003104-15.66826c0 1.10493-.89663 2.00155-2.00156 2.00155s-2.001544-.89662-2.001544-2.00155.896614-2.001549 2.001544-2.001549 2.00156.896619 2.00156 2.001549z" fill="#333"/></svg>